# xmcd
#
# Track frame offsets:
# 150
# 17562
# 31522
# 60735
#
# Disc length: 1192 seconds
#
#
# Revision: 2
# Processed by: cddbd v1.5.2PL0 Copyright (c) Steve Scherf et al.
# Submitted via: FreeRIP 2.941 
#
DISCID=2204a604
DTITLE=K.D. Lang - The Consequences Of Falling
DYEAR=2000
DGENRE=Crossover
TTITLE0=The Consequences Of Falling (Album Version)
TTITLE1=The Consequences Of Falling (Love To Infinity Radio Mix)
TTITLE2=The Consequences Of Falling (Love To Infinity Master Mix)
TTITLE3=The Consequences Of Falling (Love To Infinity Funk Mix)
EXTD=
EXTT0=
EXTT1=
EXTT2=
EXTT3=
PLAYORDER=
